<?xml version="1.0" encoding="UTF-8"?>
<svg version="1.1" xmlns="http://www.w3.org/2000/svg" width="28" height="28">
    <g clip-path="url(#clip0_286_768)">
        <path d="M0 0 C9.24 0 18.48 0 28 0 C28 9.24 28 18.48 28 28 C18.76 28 9.52 28 0 28 C0 18.76 0 9.52 0 0 Z "
            fill="#20B129" transform="translate(0,0)" />
        <path
            d="M0 0 C2.4375 1.3125 2.4375 1.3125 4 3 C4 3.99 4 4.98 4 6 C4.598125 6.103125 5.19625 6.20625 5.8125 6.3125 C8.38757109 7.12180806 9.48151913 7.76223872 11 10 C10.73897585 13.48032201 9.96602468 15.05096298 8 18 C0.25 17.25 0.25 17.25 -2 15 C-3.98821313 14.60235737 -5.98944339 14.26224651 -8 14 C-8 13.01 -8 12.02 -8 11 C-8.66 11 -9.32 11 -10 11 C-11.44755245 4.72727273 -11.44755245 4.72727273 -9.5 1.5625 C-6.10202883 -0.56123198 -3.94103763 -0.4926297 0 0 Z "
            fill="#F8FCF9" transform="translate(14,5)" />
        <path
            d="M0 0 C6.39075249 -0.36174071 6.39075249 -0.36174071 9 1.1875 C10 3 10 3 9.8125 5.5 C9 8 9 8 7 11 C-0.75 10.25 -0.75 10.25 -3 8 C-3.125 5.375 -3.125 5.375 -3 3 C-2.01 3 -1.02 3 0 3 C0 2.01 0 1.02 0 0 Z "
            fill="#F3FAF3" transform="translate(15,12)" />
        <path
            d="M0 0 C0.66 0 1.32 0 2 0 C2 0.66 2 1.32 2 2 C2.99 1.67 3.98 1.34 5 1 C5.99 1.66 6.98 2.32 8 3 C6.35 3.33 4.7 3.66 3 4 C3 4.99 3 5.98 3 7 C2.01 6.67 1.02 6.34 0 6 C-0.33 7.32 -0.66 8.64 -1 10 C-2.65 10 -4.3 10 -6 10 C-4.68 9.67 -3.36 9.34 -2 9 C-1.7834375 7.88625 -1.7834375 7.88625 -1.5625 6.75 C-1.09812508 4.47972261 -0.58136431 2.24240521 0 0 Z "
            fill="#96D59A" transform="translate(13,9)" />
        <path
            d="M0 0 C0.66 0.33 1.32 0.66 2 1 C2 2.66666667 2 4.33333333 2 6 C0.68 5.67 -0.64 5.34 -2 5 C-2.66 6.32 -3.32 7.64 -4 9 C-4.25 6.75 -4.25 6.75 -4 4 C-2 1.6875 -2 1.6875 0 0 Z "
            fill="#C6EAC8" transform="translate(7,5)" />
    </g>
    <defs>
        <clipPath id="clip0_286_768">
            <rect width="28" height="28" fill="white" />
        </clipPath>
    </defs>
</svg>